<svg width="25" height="24" viewBox="0 0 25 24" fill="none" xmlns="http://www.w3.org/2000/svg">
<g clip-path="url(#clip0)">
<path d="M11.5616 0.0151451C8.16178 0.186141 5.00592 1.7437 2.81868 4.32799C0.457217 7.11927 -0.485997 10.7945 0.238873 14.3726C0.840498 17.3426 2.60048 20.0111 5.12688 21.7825C7.19346 23.2331 9.63998 24.0024 12.1848 24.0003C14.5791 24.0004 16.9198 23.3009 18.9111 21.9903C20.0601 21.2327 21.0719 20.2902 21.9042 19.2022C23.7375 16.8053 24.5875 13.807 24.2841 10.8069C23.8974 6.97137 21.6542 3.55086 18.2494 1.60511C16.2396 0.457184 13.8897 -0.101402 11.5616 0.0151451Z" fill="black" fill-opacity="0.8"/>
<path d="M12.9971 6.33874C11.1697 6.68073 9.63749 6.97473 9.59184 6.99122C9.4336 7.04972 9.28449 7.19672 9.21906 7.36022L9.18254 7.44721L9.17494 10.7396L9.16733 14.032L9.12472 14.1175C9.07756 14.2135 8.98778 14.3005 8.89497 14.3395C8.86149 14.3545 8.41263 14.473 7.89835 14.602C7.38406 14.731 6.92911 14.851 6.88651 14.8675C6.37527 15.064 5.99792 15.481 5.84729 16.0135C5.80772 16.1515 5.80468 16.1815 5.8062 16.432C5.8062 16.66 5.81077 16.72 5.83816 16.8175C5.91645 17.1009 6.06979 17.3587 6.28245 17.5645C6.75718 18.0264 7.44797 18.2004 8.18136 18.0429C9.07147 17.8525 9.79725 17.188 10.0483 16.3315C10.1457 15.997 10.1396 16.2085 10.1487 13.2071L10.1563 10.4771L10.1913 10.3961C10.2629 10.2281 10.3739 10.1111 10.5276 10.0391C10.5946 10.0091 11.1119 9.90415 12.9864 9.54416C14.2919 9.29217 15.4012 9.08667 15.4514 9.08517C15.6324 9.08217 15.7876 9.17067 15.8774 9.33117L15.9231 9.41216V12.6221L15.882 12.6986C15.8319 12.7852 15.7595 12.8571 15.672 12.9071C15.6476 12.9206 15.2231 13.0316 14.7317 13.1546C13.7092 13.4111 13.6681 13.4216 13.5038 13.5041C12.8891 13.8071 12.5148 14.4415 12.5574 15.103C12.6091 15.8695 13.2253 16.4995 14.0652 16.6435C14.2585 16.678 14.7225 16.6645 14.9234 16.621C15.3586 16.5265 15.7618 16.3255 16.0676 16.054C16.4799 15.688 16.7295 15.265 16.8619 14.7115L16.8968 14.572L16.8999 10.3346C16.906 5.56476 16.9182 6.02075 16.7827 5.87525C16.7399 5.83008 16.6907 5.79119 16.6367 5.75976C16.4799 5.68176 16.6488 5.65476 12.9971 6.33874Z" fill="#DDDDDD"/>
</g>
<defs>
<clipPath id="clip0">
<rect width="24.3443" height="24" fill="white"/>
</clipPath>
</defs>
</svg>
