<svg width="25" height="24" viewBox="0 0 25 24" fill="none" xmlns="http://www.w3.org/2000/svg">
<path d="M11.0641 0.0654005C9.2143 0.290458 7.42158 0.946875 5.87614 1.95963C3.4795 3.53034 1.73434 5.8278 0.916439 8.50036C0.721475 9.11926 0.531266 10.0617 0.459938 10.6947C0.39812 11.2808 0.39812 12.7155 0.459938 13.3016C0.973502 18.0559 4.383 22.1163 9.03836 23.5042C9.66605 23.6964 10.6218 23.884 11.2638 23.9543C11.8582 24.0152 13.3133 24.0152 13.9077 23.9543C16.7228 23.6589 19.3334 22.3976 21.3401 20.3627C22.7144 18.9608 23.6892 17.3385 24.2551 15.4959C24.607 14.3565 24.7591 13.3016 24.7591 11.9981C24.7591 11.0182 24.7116 10.479 24.5404 9.63033C23.6797 5.31674 20.4176 1.77208 16.1332 0.492071C15.5055 0.299835 14.5497 0.112287 13.9077 0.041957C13.2848 -0.0236847 11.6775 -0.0096186 11.0641 0.0654005ZM14.5829 9.84601V11.0698L14.7969 10.8494C14.9158 10.7322 15.1346 10.5774 15.2867 10.5071C15.5292 10.3946 15.6148 10.3805 16.0808 10.3805C16.5706 10.3805 16.6229 10.3899 16.9225 10.5306C17.6834 10.8869 18.1208 11.6277 18.1827 12.678C18.2492 13.8408 17.7975 14.8207 17.0176 15.1958C16.7085 15.3458 16.6848 15.3505 16.1046 15.3505C15.5197 15.3505 15.5007 15.3458 15.1774 15.1864C14.9491 15.0739 14.7969 14.9614 14.6923 14.8207L14.5402 14.6238L14.5259 14.9379L14.5116 15.2568L14.0218 15.2708L13.5368 15.2849V12.0169C13.5368 10.2211 13.532 8.74417 13.5225 8.73479C13.513 8.72541 12.7046 10.1789 11.7251 11.9653L9.94185 15.2099L6.05683 15.2239C3.92174 15.2286 2.17182 15.2239 2.17182 15.2146C2.17182 15.2005 5.68593 8.79574 5.75726 8.67384C5.78103 8.63633 6.95082 8.62226 10.1891 8.62226H14.5829V9.84601ZM21.6349 10.4274C22.0249 10.5259 22.2674 10.6618 22.5337 10.9244C22.7905 11.1776 22.9712 11.5293 23.0235 11.8762L23.0568 12.0966L22.5479 12.0825L22.0391 12.0685L21.9488 11.8387C21.7824 11.4027 21.4495 11.1917 20.9312 11.1917C20.118 11.1964 19.671 11.7871 19.671 12.8655C19.671 13.9205 20.1228 14.5441 20.8836 14.5394C21.226 14.5394 21.3639 14.4925 21.5921 14.2909C21.7919 14.1221 21.9298 13.883 21.9773 13.6251L22.0106 13.4516H22.5337H23.0568L23.0235 13.6251C22.9284 14.1455 22.6431 14.6613 22.3149 14.9239C21.8727 15.2802 21.44 15.3974 20.7267 15.3646C20.3082 15.3458 20.2084 15.3224 19.8993 15.1771C19.0766 14.7926 18.6296 13.9955 18.6249 12.9218C18.6249 11.6512 19.2431 10.6994 20.2464 10.4321C20.584 10.343 21.2926 10.3383 21.6349 10.4274Z" fill="black" fill-opacity="0.8"/>
<path d="M15.5955 11.2056C15.0249 11.3134 14.692 11.7307 14.5731 12.4856C14.5303 12.7622 14.5303 12.9217 14.5731 13.203C14.7158 14.0938 15.1485 14.5439 15.876 14.5439C16.3088 14.5439 16.6321 14.3658 16.8556 14.0094C17.0791 13.6437 17.1267 13.4468 17.1267 12.842C17.1267 12.3356 17.1172 12.284 16.9793 11.998C16.8984 11.8292 16.7748 11.6276 16.7035 11.5432C16.4704 11.2712 16.0044 11.1259 15.5955 11.2056Z" fill="black" fill-opacity="0.8"/>
</svg>
