<svg width="26" height="24" viewBox="0 0 26 24" fill="none" xmlns="http://www.w3.org/2000/svg">
<g opacity="0.8" clip-path="url(#clip0)">
<path d="M13.0502 0C6.29987 0 0.827148 5.35082 0.827148 11.9508C0.827148 18.5508 6.29987 23.9016 13.0502 23.9016C19.8006 23.9016 25.2733 18.5508 25.2733 11.9508C25.2733 5.35082 19.8006 0 13.0502 0ZM8.85515 7.21967H15.0421C16.5009 7.21967 17.6779 8.48853 17.6377 9.91475C17.6276 10.682 17.195 11.341 16.4204 11.6066C17.5874 12.0492 18.2111 12.6984 18.1407 13.9574C18.0703 15.6098 16.7725 16.7803 15.0522 16.7803H8.85515V7.21967ZM12.6176 9.91475V10.8984H13.6237C13.9053 10.8984 14.1267 10.682 14.1267 10.4066C14.1267 10.1311 13.9053 9.91475 13.6237 9.91475H12.6176ZM12.6176 12.8557V14.0852H13.7444C14.0864 14.0852 14.3681 13.8098 14.3681 13.4754C14.3681 13.141 14.0864 12.8656 13.7444 12.8656H12.6176V12.8557Z" fill="black"/>
</g>
<defs>
<clipPath id="clip0">
<rect width="24.3456" height="24" fill="white" transform="translate(0.827148)"/>
</clipPath>
</defs>
</svg>
