<svg xmlns="http://www.w3.org/2000/svg" viewBox="0 0 704.97 187.61"><title>nesmsvg</title><g id="Слой_2" data-name="Слой 2"><g id="Слой_1-2" data-name="Слой 1"><path d="M219.93,68v7.4a24.52,24.52,0,0,1,9.19-6.24,31.44,31.44,0,0,1,12.2-2.43A54,54,0,0,1,253,67.86a25.22,25.22,0,0,1,8.85,3.64,16.27,16.27,0,0,1,5.55,6.36,20.87,20.87,0,0,1,1.91,9.3v37.58h-11V88.55a12.07,12.07,0,0,0-1.44-6,13.39,13.39,0,0,0-4.05-4.45,18.59,18.59,0,0,0-6.07-2.78,28.47,28.47,0,0,0-7.4-.92q-8.43,0-13.7,4.16a13.78,13.78,0,0,0-5.26,11.44v34.69h-11V68Z"/><path d="M336.46,105.89q-2.77,11-10.7,15.55T305.82,126a42.67,42.67,0,0,1-14.68-2.25A28,28,0,0,1,281,117.57a24.31,24.31,0,0,1-5.9-9.36,35.48,35.48,0,0,1-1.9-11.8,34.28,34.28,0,0,1,2.31-13.12A23.87,23.87,0,0,1,282.12,74a27.88,27.88,0,0,1,10.23-5.43,45.65,45.65,0,0,1,13.24-1.79,39.71,39.71,0,0,1,12.54,1.85,26.71,26.71,0,0,1,9.66,5.49A24,24,0,0,1,334,83.29a34.68,34.68,0,0,1,2.2,12.89v2.08h-51.8A26.83,26.83,0,0,0,286,106a18.72,18.72,0,0,0,3.93,6.42,18.41,18.41,0,0,0,6.54,4.39,24.5,24.5,0,0,0,9.36,1.62q7.4,0,12.2-2.89t7.11-9.6Zm-52-14.8h40.24A18,18,0,0,0,323,84.68a17.1,17.1,0,0,0-3.87-5.32,18.16,18.16,0,0,0-5.84-3.58,21,21,0,0,0-7.69-1.33,23.63,23.63,0,0,0-8.09,1.33A22.68,22.68,0,0,0,291,79.36a18.38,18.38,0,0,0-4.56,5.26,14.67,14.67,0,0,0-2,6.47"/><path d="M370.33,66.81A43.59,43.59,0,0,1,384.73,69a26.22,26.22,0,0,1,10,6.07,24.65,24.65,0,0,1,5.84,9.31,35.61,35.61,0,0,1,1.91,12q0,14.22-8.1,22T370.33,126q-16.06,0-24.16-7.75t-8.09-22a35.37,35.37,0,0,1,1.91-12A24.28,24.28,0,0,1,345.88,75,26.78,26.78,0,0,1,355.94,69a43.57,43.57,0,0,1,14.39-2.14m0,7.52a23.22,23.22,0,0,0-9.53,1.79A18,18,0,0,0,354.26,81a20.1,20.1,0,0,0-3.75,7,28.59,28.59,0,0,0-1.22,8.38,28.06,28.06,0,0,0,1.22,8.33,19.56,19.56,0,0,0,3.75,6.93,17.49,17.49,0,0,0,6.54,4.74,27,27,0,0,0,19.07,0,17,17,0,0,0,6.48-4.74,20.1,20.1,0,0,0,3.7-6.93,28.06,28.06,0,0,0,1.21-8.33A28.59,28.59,0,0,0,390.05,88a20.67,20.67,0,0,0-3.7-7,17.42,17.42,0,0,0-6.48-4.86,23.24,23.24,0,0,0-9.54-1.79"/><path d="M416.17,148.21h-10.4V68h10.75v7a22.53,22.53,0,0,1,8.15-6,28.86,28.86,0,0,1,11.85-2.26A43.59,43.59,0,0,1,450.92,69,26.86,26.86,0,0,1,461,75a24.28,24.28,0,0,1,5.89,9.31,35.61,35.61,0,0,1,1.91,12q0,14.22-8.27,21.91T437,125.89a29.93,29.93,0,0,1-6.48-.69,30.28,30.28,0,0,1-5.84-1.91,24.41,24.41,0,0,1-4.91-2.89,18.22,18.22,0,0,1-3.59-3.52Zm20.35-73.88A21.48,21.48,0,0,0,427.68,76a17.35,17.35,0,0,0-6.24,4.56,19.81,19.81,0,0,0-3.76,6.71,27.83,27.83,0,0,0-1.39,8.09V98a22.73,22.73,0,0,0,1.21,7.28,19.56,19.56,0,0,0,3.7,6.48,17.86,17.86,0,0,0,6.31,4.62,21.55,21.55,0,0,0,9,1.74,23.77,23.77,0,0,0,9.54-1.74,17.37,17.37,0,0,0,6.53-4.74,18.7,18.7,0,0,0,3.7-6.93,29.42,29.42,0,0,0,1.16-8.33A30,30,0,0,0,456.29,88a19.22,19.22,0,0,0-3.7-7,17.85,17.85,0,0,0-6.53-4.86,23.24,23.24,0,0,0-9.54-1.79"/><rect x="473.11" y="44.62" width="10.98" height="80.12"/><path d="M536.4,124.74a8.66,8.66,0,0,1-.34-1.85,38.51,38.51,0,0,1-.35-6.24,21.8,21.8,0,0,1-8.44,6.53,30.77,30.77,0,0,1-13.41,2.71,46.59,46.59,0,0,1-9.31-.92,28.55,28.55,0,0,1-8.21-3,17.57,17.57,0,0,1-5.89-5.2,13.17,13.17,0,0,1-2.26-7.81,12.27,12.27,0,0,1,2.32-7.45,18.59,18.59,0,0,1,5.95-5.26,30.92,30.92,0,0,1,8.21-3.18,43.42,43.42,0,0,1,9-1.22L535,91.33V86.47q0-6.59-4.16-9.31t-11.68-2.71q-7.75,0-11.39,2.48a13.31,13.31,0,0,0-5.14,7.46H491.31A14.1,14.1,0,0,1,493.22,78a18.34,18.34,0,0,1,5.26-5.72,27.37,27.37,0,0,1,8.62-4,43.35,43.35,0,0,1,12.08-1.5,41.13,41.13,0,0,1,12.72,1.68,20.16,20.16,0,0,1,8.15,4.74,17.55,17.55,0,0,1,4.39,7.4,32.24,32.24,0,0,1,1.33,9.53v26.71a37.6,37.6,0,0,0,.35,6.13,8.66,8.66,0,0,0,.34,1.85Zm-1.27-22.66V98.72l-20.81.58q-7.4.24-11.21,2.55a7.78,7.78,0,0,0-3.82,7.16q0,4,4.28,6.59a21,21,0,0,0,10.87,2.55,26.55,26.55,0,0,0,8.44-1.27,20.82,20.82,0,0,0,6.53-3.47,16.06,16.06,0,0,0,4.22-5.09,13.34,13.34,0,0,0,1.5-6.24"/><path d="M590,83.46a8.41,8.41,0,0,0-4.5-6.88A21.58,21.58,0,0,0,575,74.33a29.84,29.84,0,0,0-5.2.46,16.59,16.59,0,0,0-4.51,1.45,8.78,8.78,0,0,0-3.12,2.48A5.74,5.74,0,0,0,561,82.31a6.51,6.51,0,0,0,3.07,6,22.92,22.92,0,0,0,7.74,2.83q4.69.93,10.06,1.57a47.56,47.56,0,0,1,10.06,2.25,19.07,19.07,0,0,1,7.75,4.86c2,2.15,3.06,5.28,3.06,9.36a12.92,12.92,0,0,1-2.43,8,17.71,17.71,0,0,1-6.3,5.2,31.15,31.15,0,0,1-8.55,2.83,51.45,51.45,0,0,1-20.29-.29,29.22,29.22,0,0,1-8.73-3.35,16.62,16.62,0,0,1-5.67-5.43,13.47,13.47,0,0,1-2-7.29h11.1q1.5,9.72,16.42,9.72a37.07,37.07,0,0,0,5.32-.41,19.21,19.21,0,0,0,5.08-1.44,9.91,9.91,0,0,0,3.76-2.89,7.53,7.53,0,0,0,1.44-4.75,5.74,5.74,0,0,0-1.79-4.5,13.2,13.2,0,0,0-4.74-2.61,38.25,38.25,0,0,0-6.65-1.5c-2.46-.35-5-.71-7.63-1.1a76.27,76.27,0,0,1-7.63-1.5,24.79,24.79,0,0,1-6.64-2.66A14,14,0,0,1,552,90.63a13,13,0,0,1-1.8-7.17,13.51,13.51,0,0,1,2-7.51,16.18,16.18,0,0,1,5.43-5.15,26.48,26.48,0,0,1,7.92-3,44.16,44.16,0,0,1,9.48-1A42.45,42.45,0,0,1,585.38,68a26.82,26.82,0,0,1,8,3.3,15.94,15.94,0,0,1,5.2,5.2,13.27,13.27,0,0,1,1.85,7Z"/><path d="M658.38,75.49q6.47-8.79,21.27-8.79,13.53,0,19.43,5T705,87.16v37.58H694V88.55q0-7.29-4.11-10.69T677.8,74.44q-8.09,0-12.31,3.94t-4.22,11.67v34.69h-11V88.55q0-7.29-4.11-10.69T634.1,74.44q-16.65,0-16.65,15.61v34.69h-11V68H617v6.47a22.94,22.94,0,0,1,8.09-5.72,27.44,27.44,0,0,1,10.87-2q9.7,0,14.8,2.31a16.74,16.74,0,0,1,7.63,6.48"/><path d="M177.16,121.13a5.88,5.88,0,0,1-5.61-1.51l-.4-.39a5.9,5.9,0,0,1-1.51-5.62,8.34,8.34,0,0,0-10.18-10.18,5.88,5.88,0,0,1-5.61-1.51l-.4-.39a5.88,5.88,0,0,1-1.5-5.64l.05-.2c0-.12.05-.23.07-.35s0-.19.05-.29.06-.54.07-.72,0-1.22,0-1.5v0c0-.16-.17-1-.21-1.11a5.86,5.86,0,0,1,1.51-5.61l.4-.4a5.85,5.85,0,0,1,5.61-1.5A8.35,8.35,0,0,0,169.64,74a5.88,5.88,0,0,1,1.51-5.61l.4-.4a5.85,5.85,0,0,1,5.61-1.5A8.35,8.35,0,0,0,187.6,58a8.34,8.34,0,0,0-13.41-6.16,8.4,8.4,0,0,0-3,8.7,5.85,5.85,0,0,1-1.5,5.65l-.39.39A5.88,5.88,0,0,1,163.68,68a8.35,8.35,0,0,0-10.19,10.18,5.85,5.85,0,0,1-1.5,5.61l-.4.4A5.89,5.89,0,0,1,146,85.74l-.28-.07-.32-.06-.42-.07-.3,0a5.58,5.58,0,0,0-.7,0h-.31l-.48,0-.14,0-.5.06-.21,0-.41.08-.23.06-.41.12a4.68,4.68,0,0,0-.48.18l-.17.06-.4.18-.17.09a2.82,2.82,0,0,0-.38.21l-.09,0a8.38,8.38,0,0,0-.76.51l-.09.07-.06,0-.12.11c-.19.15-.35.3-.52.46l-.12.12c-.16.17-.32.34-.46.52l-.16.18c-.14.18-.27.37-.4.56a2.39,2.39,0,0,0-.13.21l-.12.18a5.85,5.85,0,0,1-5,2.89h-.55a5.87,5.87,0,0,1-5-2.9,8.34,8.34,0,0,0-14.4,0,5.87,5.87,0,0,1-5,2.9h-.55A5.85,5.85,0,0,1,101,89.56l-.17-.27-.12-.19-.33-.45-.15-.17-.18-.22,0-.06h0l-.11-.11-.27-.28-.21-.19-.19-.17L99,87.27l-.2-.15-.25-.18-.34-.23L98,86.58a5.86,5.86,0,0,1-2.86-5V81A5.87,5.87,0,0,1,98,76a8.35,8.35,0,0,0,0-14.41,5.87,5.87,0,0,1-2.9-5V56a5.87,5.87,0,0,1,2.93-5l.15-.09.23-.15c.18-.12.35-.25.52-.38l.19-.15c.16-.14.32-.28.47-.43a1.7,1.7,0,0,0,.19-.19l.22-.24.34-.38.1-.14.19-.26.29-.44L101,48c.08-.14.16-.28.23-.43l.1-.2c0-.1.11-.22.16-.35l.07-.18c.06-.16.11-.28.15-.4a1.52,1.52,0,0,0,.06-.2l.07-.24a1,1,0,0,0,0-.16c0-.13.06-.26.09-.39l.15-1.24c0-.14,0-.22,0-.31v-.29c0-.12,0-.25,0-.37a2.83,2.83,0,0,0,0-.29l0-.38c0-.1,0-.18,0-.27s-.06-.31-.09-.43l0-.18a5.89,5.89,0,0,1,1.5-5.65l.39-.39a5.88,5.88,0,0,1,5.61-1.51,8.35,8.35,0,0,0,10.19-10.19,5.84,5.84,0,0,1,1.51-5.61l.39-.39a5.85,5.85,0,0,1,5.65-1.5,8.34,8.34,0,0,0,8.61-13.27,8.35,8.35,0,0,0-14.61,7.3,5.88,5.88,0,0,1-1.51,5.61l-.4.39A5.85,5.85,0,0,1,113.61,18a8.34,8.34,0,0,0-10.18,10.19,5.89,5.89,0,0,1-1.51,5.61l-.39.39a5.84,5.84,0,0,1-5.64,1.5l-.2,0-.35-.08-.27,0-.34,0-.39,0h-1.1l-.32,0h-.09l-.69.11-.41.09a5.82,5.82,0,0,1-5.64-1.5l-.4-.39a5.86,5.86,0,0,1-1.5-5.61A8.35,8.35,0,0,0,74,18a5.85,5.85,0,0,1-5.61-1.51l-.4-.39a5.85,5.85,0,0,1-1.5-5.61,8.35,8.35,0,1,0-6,6,5.85,5.85,0,0,1,5.65,1.5l.39.39A5.89,5.89,0,0,1,68,23.93,8.34,8.34,0,0,0,78.22,34.12a5.88,5.88,0,0,1,5.61,1.51l.4.39a5.9,5.9,0,0,1,1.51,5.59c0,.1,0,.19-.07.28l-.06.32c0,.14,0,.28-.07.42l0,.31a5.32,5.32,0,0,0,0,.69v.31c0,.16,0,.33,0,.49l0,.2.06.43,0,.21c0,.15,0,.28.08.42l.06.22c0,.14.08.27.12.41a4.84,4.84,0,0,0,.18.49l.06.16c.07.17.13.28.18.4l.09.17a3.72,3.72,0,0,0,.21.39l0,.08a9.17,9.17,0,0,0,.52.76l.11.16.12.13c.14.17.29.34.44.5l.13.13.52.46.17.14.57.42.38.24a5.87,5.87,0,0,1,2.9,5v.56a5.87,5.87,0,0,1-2.9,5,8.35,8.35,0,0,0,0,14.41,5.87,5.87,0,0,1,2.9,5v.56a5.87,5.87,0,0,1-2.93,5.05l-.89.61-.28.23-.21.18-.15.15-.18.18-.19.2-.19.21-.23.29-.4.55a3.85,3.85,0,0,0-.22.35,5.91,5.91,0,0,1-5.05,2.92H81a5.87,5.87,0,0,1-5-2.9,8.34,8.34,0,0,0-14.4,0,5.87,5.87,0,0,1-5,2.9H56a5.85,5.85,0,0,1-5.06-2.93l-.22-.35c-.16-.24-.32-.45-.46-.64l0,0a5.94,5.94,0,0,0-.5-.55l-.13-.13-.31-.29-.16-.13L49,87.3l-.49-.37-.35-.22L48,86.6c-.12-.07-.24-.14-.37-.2l-.19-.1L47,86.13l-.2-.08L46.65,86l-.21-.08L46,85.77l-.13,0a5.08,5.08,0,0,0-.69-.15l-.29,0-.12,0-.55,0h-1l-.26,0-.3,0-.12,0-.31.06h-.07l-.3.06-.19,0A5.91,5.91,0,0,1,36,84.23l-.39-.4a5.88,5.88,0,0,1-1.51-5.61A8.34,8.34,0,0,0,23.93,68a5.88,5.88,0,0,1-5.61-1.51l-.39-.39a5.85,5.85,0,0,1-1.5-5.65A8.35,8.35,0,0,0,3.16,51.87,8.28,8.28,0,0,0,0,58a8.35,8.35,0,0,0,10.45,8.54A5.85,5.85,0,0,1,16.07,68l.39.4A5.88,5.88,0,0,1,18,74,8.35,8.35,0,0,0,28.16,84.19a5.86,5.86,0,0,1,5.61,1.5l.39.4a5.82,5.82,0,0,1,1.5,5.64,1.18,1.18,0,0,0,0,.2l-.07.3a5.4,5.4,0,0,0-.09.6v.06c0,.14,0,.25,0,.37l0,.37V94l0,.39c0,.11,0,.23,0,.35v.07a6.35,6.35,0,0,0,.13.76l.07.35a5.84,5.84,0,0,1-1.5,5.64l-.39.39a5.89,5.89,0,0,1-5.61,1.51A8.34,8.34,0,0,0,18,113.61a5.9,5.9,0,0,1-1.51,5.62l-.39.39a5.89,5.89,0,0,1-5.61,1.51A8.34,8.34,0,0,0,0,129.67a8.26,8.26,0,0,0,3.15,6.07,8.34,8.34,0,0,0,13.27-8.61,5.85,5.85,0,0,1,1.5-5.65l.39-.39a5.87,5.87,0,0,1,5.61-1.51,8.35,8.35,0,0,0,10.19-10.19,5.88,5.88,0,0,1,1.51-5.61l.39-.39a5.88,5.88,0,0,1,5.59-1.52l.3.08.29,0,.43.07.3,0,.71,0h.29l.5,0,.19,0a3.47,3.47,0,0,0,.45-.06l.2,0,.45-.1.18,0,.52-.16.2-.07.42-.16.31-.15.23-.11a3.3,3.3,0,0,0,.32-.18l.2-.12.45-.29.32-.23.06-.05.09-.08q.34-.28.6-.54l.06,0,.51-.57.09-.11c.16-.2.31-.42.45-.63L51,98a5.87,5.87,0,0,1,5-2.9h.56a5.88,5.88,0,0,1,5,2.9A8.34,8.34,0,0,0,76,98a5.87,5.87,0,0,1,5-2.9h.56a5.83,5.83,0,0,1,5.05,2.94l.13.2c.07.1.12.19.18.27l.18.25.15.2.48.55.28.28,1.07.88.22.14.33.21a5.87,5.87,0,0,1,2.85,5v.56a5.87,5.87,0,0,1-2.9,5,8.35,8.35,0,0,0,0,14.41,5.87,5.87,0,0,1,2.9,5v.56a5.87,5.87,0,0,1-2.93,5.05l-.34.22c-.25.16-.44.3-.62.44l0,0c-.18.15-.38.32-.59.53l-.14.14c-.09.1-.19.2-.28.31l-.06.07-.07.07-.12.14,0,.06-.09.13-.11.15-.12.15c-.08.12-.15.24-.22.36l-.11.18c-.07.12-.14.24-.2.36l-.12.23c0,.1-.1.21-.15.33s0,.14-.08.2L86,141a2.09,2.09,0,0,0-.08.23c0,.15-.1.29-.14.44l0,.13c-.06.25-.11.47-.15.69l0,.28,0,.12,0,.65a1.93,1.93,0,0,0,0,.24V144c0,.13,0,.26,0,.38s0,.15,0,.23l0,.44.06.33v.09c0,.07,0,.17.06.27a1.74,1.74,0,0,0,0,.22,5.88,5.88,0,0,1-1.5,5.61l-.4.4a5.85,5.85,0,0,1-5.61,1.5A8.35,8.35,0,0,0,68,163.68a5.88,5.88,0,0,1-1.51,5.61l-.39.39a5.85,5.85,0,0,1-5.65,1.5,8.6,8.6,0,0,0-2.06-.25,8.34,8.34,0,0,0-6.56,13.53,8.35,8.35,0,0,0,14.62-7.3,5.85,5.85,0,0,1,1.5-5.61l.4-.4A5.88,5.88,0,0,1,74,169.64a8.35,8.35,0,0,0,10.19-10.18,5.85,5.85,0,0,1,1.5-5.61l.4-.4a5.87,5.87,0,0,1,5.64-1.5l.18,0,.31.07a5.43,5.43,0,0,0,.56.09l.19,0,.31,0,.34,0h.68l.41,0,.07,0a6.33,6.33,0,0,0,.76-.12l.09,0,.26-.06a5.88,5.88,0,0,1,5.64,1.5l.39.4a5.88,5.88,0,0,1,1.51,5.61,8.34,8.34,0,0,0,10.18,10.18,5.88,5.88,0,0,1,5.61,1.51l.4.4a5.88,5.88,0,0,1,1.51,5.61,8.34,8.34,0,1,0,6-6,5.85,5.85,0,0,1-5.65-1.5l-.39-.39a5.83,5.83,0,0,1-1.51-5.61,8.36,8.36,0,0,0-10.19-10.19,5.85,5.85,0,0,1-5.61-1.5l-.39-.4a5.86,5.86,0,0,1-1.52-5.59c0-.1.06-.2.08-.29l0-.3c0-.14,0-.28.07-.42l0-.32c0-.23,0-.46,0-.7v-.29c0-.16,0-.33,0-.49v-.14c0-.2,0-.36-.07-.51l0-.18c0-.16-.06-.31-.1-.46l0-.17c-.05-.19-.1-.37-.16-.54s0-.12-.07-.19l0-.07c-.05-.12-.09-.24-.14-.35s-.09-.2-.14-.29-.08-.18-.12-.25l-.18-.33-.12-.2c-.09-.15-.19-.3-.29-.45l-.24-.32-.11-.14c-.2-.24-.38-.44-.55-.61a7.32,7.32,0,0,0-.63-.57l0,0a7.75,7.75,0,0,0-.68-.5l-.35-.22a5.87,5.87,0,0,1-2.9-5v-.56a5.87,5.87,0,0,1,2.9-5,8.35,8.35,0,0,0,0-14.41,5.87,5.87,0,0,1-2.9-5V106a5.88,5.88,0,0,1,2.9-5l.24-.15.29-.19.22-.16.24-.18.52-.45.33-.33.13-.14.2-.23.1-.12.23-.29h0l.12-.18c.14-.2.26-.38.37-.56a5.85,5.85,0,0,1,5-2.91h.56a5.87,5.87,0,0,1,5,2.9A8.34,8.34,0,0,0,126,98a5.87,5.87,0,0,1,5-2.9h.55a5.83,5.83,0,0,1,5.05,2.94l.1.14a2.22,2.22,0,0,0,.15.23c.12.18.24.35.37.52s.11.13.16.19a4.79,4.79,0,0,0,.43.47l.18.19.24.22.39.34a.24.24,0,0,0,.09.06l.3.23.45.29.09.06.43.23.18.09.38.17.19.08.38.14.2.06.25.08.16,0,.37.08,1.34.17h.89l.24,0,.32,0,.12,0,.26,0,.43-.08.23-.06a5.83,5.83,0,0,1,5.59,1.51l.4.39a5.85,5.85,0,0,1,1.5,5.61,8.36,8.36,0,0,0,10.19,10.19,5.85,5.85,0,0,1,5.61,1.51l.39.39a5.85,5.85,0,0,1,1.5,5.65,8.35,8.35,0,0,0,13.28,8.61,8.35,8.35,0,0,0,.71-12.44,8.38,8.38,0,0,0-8-2.17"/><path d="M130.64,45.18h0a8.38,8.38,0,0,0-2.18,8A5.83,5.83,0,0,1,127,58.8l-.39.4A5.85,5.85,0,0,1,121,60.7a8.35,8.35,0,1,0,6,6,5.85,5.85,0,0,1,1.5-5.65l.39-.39a5.9,5.9,0,0,1,5.62-1.51A8.34,8.34,0,0,0,144.61,49a5.88,5.88,0,0,1,1.51-5.61l.39-.4a5.89,5.89,0,0,1,5.61-1.51,8.34,8.34,0,0,0,10.45-8.53,8.28,8.28,0,0,0-3.15-6.08,8.35,8.35,0,0,0-13.27,8.62,5.84,5.84,0,0,1-1.5,5.64l-.39.4a5.85,5.85,0,0,1-5.61,1.5,8.38,8.38,0,0,0-8,2.18"/><path d="M57,142.44h0a8.4,8.4,0,0,0,2.18-8,5.86,5.86,0,0,1,1.5-5.61l.4-.39a5.85,5.85,0,0,1,5.61-1.51,8.34,8.34,0,0,0,10.44-8.54A8.26,8.26,0,0,0,74,112.3a8.34,8.34,0,0,0-13.27,8.61,5.88,5.88,0,0,1-1.51,5.65l-.39.39a5.88,5.88,0,0,1-5.61,1.51A8.35,8.35,0,0,0,43,138.65a5.86,5.86,0,0,1-1.5,5.61l-.4.39a5.88,5.88,0,0,1-5.61,1.51,8.27,8.27,0,0,0-2.09-.27,8.34,8.34,0,0,0-8.35,8.81,8.35,8.35,0,0,0,13.41,6.16,8.38,8.38,0,0,0,3-8.7A5.88,5.88,0,0,1,43,146.51l.39-.39A5.85,5.85,0,0,1,49,144.61a8.39,8.39,0,0,0,8-2.17"/><path d="M152.16,146.15h0a5.85,5.85,0,0,1-5.65-1.5l-.39-.39a5.89,5.89,0,0,1-1.51-5.61,8.34,8.34,0,0,0-10.18-10.19,5.9,5.9,0,0,1-5.62-1.51l-.39-.39a5.89,5.89,0,0,1-1.51-5.61,8.34,8.34,0,0,0-8.54-10.45,8.26,8.26,0,0,0-6.07,3.15,8.34,8.34,0,0,0,8.61,13.27,5.85,5.85,0,0,1,5.65,1.5l.39.39a5.87,5.87,0,0,1,1.51,5.61,8.35,8.35,0,0,0,10.19,10.19,5.72,5.72,0,0,1,1.48-.19,5.85,5.85,0,0,1,4.13,1.7l.39.39a5.85,5.85,0,0,1,1.51,5.61,8.35,8.35,0,1,0,6-6"/><path d="M35.46,41.46A5.85,5.85,0,0,1,41.1,43l.4.4A5.88,5.88,0,0,1,43,49,8.34,8.34,0,0,0,53.19,59.15,6.26,6.26,0,0,1,54.67,59a5.83,5.83,0,0,1,4.13,1.7l.4.4a5.88,5.88,0,0,1,1.51,5.61,8.33,8.33,0,1,0,6-6,5.83,5.83,0,0,1-5.64-1.5l-.4-.39a5.85,5.85,0,0,1-1.5-5.61A8.36,8.36,0,0,0,49,43a5.85,5.85,0,0,1-5.61-1.5l-.4-.4a5.85,5.85,0,0,1-1.5-5.61,8.35,8.35,0,1,0-6,6"/></g></g></svg>