<svg width="14" height="14" viewBox="0 0 14 14" fill="none" xmlns="http://www.w3.org/2000/svg">
<path d="M7 0C3.13438 0 0 3.13438 0 7C0 10.8656 3.13438 14 7 14C10.8656 14 14 10.8656 14 7C14 3.13438 10.8656 0 7 0ZM5.75 9.375C5.75 9.44375 5.69375 9.5 5.625 9.5H4.875C4.80625 9.5 4.75 9.44375 4.75 9.375V4.625C4.75 4.55625 4.80625 4.5 4.875 4.5H5.625C5.69375 4.5 5.75 4.55625 5.75 4.625V9.375ZM9.25 9.375C9.25 9.44375 9.19375 9.5 9.125 9.5H8.375C8.30625 9.5 8.25 9.44375 8.25 9.375V4.625C8.25 4.55625 8.30625 4.5 8.375 4.5H9.125C9.19375 4.5 9.25 4.55625 9.25 4.625V9.375Z" fill="black"/>
</svg>
