<svg width="25" height="24" viewBox="0 0 25 24" fill="none" xmlns="http://www.w3.org/2000/svg">
<g clip-path="url(#clip0)">
<path d="M12.8273 0C6.1049 0 0.654541 5.373 0.654541 12C0.654541 18.627 6.1049 24 12.8273 24C19.5497 24 25.0001 18.627 25.0001 12C25.0001 5.373 19.5497 0 12.8273 0ZM6.31793 14.583C5.95883 14.265 5.72653 13.793 5.72653 13.26C5.72653 12.728 5.95883 12.257 6.31793 11.937V14.583V14.583ZM7.50173 15C7.28668 15 7.17408 15.003 6.91033 14.92V11.602C7.19031 11.514 7.32319 11.517 7.50173 11.531V15ZM8.68553 15H8.09312V11.695L8.27571 11.8C8.35686 11.472 8.50091 11.172 8.68553 10.905V15ZM9.86832 15H9.27692V10.294C9.45952 10.16 9.65529 10.044 9.86832 9.964V15ZM11.0521 15H10.4607V9.833C10.6839 9.81 10.7508 9.793 11.0521 9.838V15ZM12.2359 15H11.6435V10.013L11.8687 10.12C11.9742 9.939 12.1 9.774 12.2359 9.62V15ZM18.2057 15H12.8273V9.096C13.299 8.776 13.8579 8.584 14.4615 8.584C16.0673 8.584 17.3688 9.891 17.4885 11.546C18.6449 10.988 19.9281 11.886 19.9281 13.188C19.9281 14.188 19.1561 15 18.2057 15V15Z" fill="black" fill-opacity="0.8"/>
</g>
<defs>
<clipPath id="clip0">
<rect width="24.3456" height="24" fill="white" transform="translate(0.654541)"/>
</clipPath>
</defs>
</svg>
