<svg width="25" height="24" viewBox="0 0 25 24" fill="none" xmlns="http://www.w3.org/2000/svg">
<g clip-path="url(#clip0)">
<path fill-rule="evenodd" clip-rule="evenodd" d="M19.6137 10.638C15.69 8.341 9.21815 8.13 5.47197 9.251C4.87044 9.431 4.23441 9.096 4.05283 8.503C3.87024 7.91 4.20905 7.283 4.8116 7.103C9.11163 5.816 16.2591 6.065 20.7762 8.708C21.3169 9.025 21.4944 9.713 21.1738 10.246C20.8533 10.779 20.1544 10.955 19.6137 10.638ZM19.4859 14.041C19.21 14.481 18.6267 14.619 18.1804 14.349C14.9089 12.367 9.92113 11.792 6.05018 12.95C5.54907 13.1 5.01854 12.821 4.86638 12.327C4.71523 11.832 4.99825 11.311 5.49936 11.16C9.92011 9.838 15.4161 10.478 19.1735 12.755C19.6198 13.025 19.7598 13.602 19.4859 14.041ZM17.9957 17.308C17.7776 17.662 17.31 17.773 16.9529 17.557C14.0944 15.835 10.4963 15.446 6.25915 16.4C5.85136 16.492 5.44459 16.24 5.35126 15.838C5.25794 15.435 5.51255 15.034 5.92135 14.942C10.5582 13.897 14.5356 14.347 17.7442 16.28C18.1022 16.495 18.2148 16.956 17.9957 17.308V17.308ZM12.4135 0C5.69108 0 0.240723 5.373 0.240723 12C0.240723 18.628 5.69108 24 12.4135 24C19.1369 24 24.5863 18.628 24.5863 12C24.5863 5.373 19.1369 0 12.4135 0Z" fill="black" fill-opacity="0.8"/>
</g>
<defs>
<clipPath id="clip0">
<rect width="24.3456" height="24" fill="white" transform="translate(0.240723)"/>
</clipPath>
</defs>
</svg>
